<?xml version="1.0" encoding="utf-8"?>
<!-- Generator: Adobe Illustrator 25.2.3, SVG Export Plug-In . SVG Version: 6.00 Build 0)  -->
<svg version="1.1" id="Layer_2" xmlns="http://www.w3.org/2000/svg" xmlns:xlink="http://www.w3.org/1999/xlink" x="0px" y="0px"
	 viewBox="0 0 3000 2000" style="enable-background:new 0 0 3000 2000;" xml:space="preserve">
<style type="text/css">
	.st0{fill:#4D1F17;}
	.st1{fill:#6B2B20;}
	.st2{fill:#F7794E;}
	.st3{fill:#FFBCA8;}
	.st4{fill:#4F4F4F;}
	.st5{fill:#5E5E5E;}
	.st6{fill:#FFBE30;}
	.st7{fill:#363636;}
	.st8{fill:#FFFFFF;}
	.st9{fill:#B0D8FF;}
	.st10{fill:#759FC7;}
	.st11{fill:#8F392B;}
	.st12{fill:#BABABA;}
	.st13{fill:#6B2B1F;}
	.st14{fill:#2F475E;}
	.st15{fill:#243647;}
	.st16{fill:#0D0D0D;}
	.st17{fill:#1C1C1C;}
	.st18{fill:#1B3242;}
	.st19{fill:#2A4E66;}
	.st20{fill:#F75E3E;}
	.st21{fill:#F5E9E6;}
	.st22{fill:#D6CAC2;}
	.st23{fill:#A71F17;}
	.st24{fill:#DE6445;}
	.st25{fill:#4F4743;}
	.st26{fill:#587173;}
	.st27{fill:#8C966A;}
	.st28{fill:#648271;}
	.st29{fill:#7BA8A3;}
	.st30{fill:#485D5E;}
	.st31{fill:#C0D1CF;}
	.st32{fill:#5C825D;}
	.st33{fill:#E6FAFF;}
	.st34{fill:#E6EDEC;}
	.st35{fill:#240F0B;}
	.st36{fill:#C49225;}
	.st37{fill:#CF271D;}
	.st38{fill:#416282;}
	.st39{fill:#BA3232;}
	.st40{fill:#CF3636;}
	.st41{fill:#821811;}
	.st42{fill:#6E615C;}
	.st43{fill:#8C7D75;}
</style>
<g>
	<g>
		<path class="st0" d="M1700.34,364.12c6.12-16.38-12.23-42.42-61.95-37.09c-49.72,5.33-60.37-5.33-66.88-5.33
			s-5.92,24.27,2.96,31.37c-10.06,8.29,3.55,34.33,3.55,34.33l92.33,19.53l26.63-22.49L1700.34,364.12z"/>
		<path class="st1" d="M1661.18,373.2c15.49,3.95,39.16-9.08,39.16-9.08c2.37,1.18,11.05,7.5,6.31,37.09
			c-4.73,29.59-22.89,82.86-38.27,80.89C1652.99,480.13,1661.18,373.2,1661.18,373.2z"/>
		<path class="st2" d="M1586.6,355.15c0,0-13.32,31.67-11.84,51.2c1.48,19.53-1.18,50.31-1.18,70.14c0,19.83,1.18,31.67,23.08,34.03
			c2.66,12.43-2.47,22.49-2.47,22.49s-10.26,21.01-10.26,21.9c0,0.89,2.37,30.48,7.99,33.14c5.62,2.66,60.96,6.81,67.18,2.66
			c6.21-4.14,20.12-14.2,21.01-20.72c0.89-6.51-0.69-43.31-0.69-43.31c-1.68-17.66-0.79-72.41-0.79-72.41l-1.48-9.77
			c-5.62,0.59-7.99-5.03-5.92-18.64c2.07-13.61-8.29-8.88-8.29-15.68c0-6.81-1.78-36.99-1.78-36.99
			C1629.51,381.78,1587.19,365.21,1586.6,355.15z"/>
		<path class="st3" d="M1646.53,504.45c-0.6,0-1.11-0.45-1.18-1.06c-0.07-0.65,0.4-1.23,1.05-1.31
			c19.7-2.16,29.23-35.48,29.29-35.82c0-0.65,0.52-1.11,1.18-1.11c0.65,0,1.18,0.6,1.18,1.26c0,0.35-9.76,35.65-31.39,38.02
			C1646.61,504.44,1646.57,504.45,1646.53,504.45z"/>
		<g>
			<polygon class="st4" points="1579.57,1557.75 1824.89,1614.46 1824.89,1653.59 1780.44,1653.59 1780.44,1633.63 1572.98,1611.26 
							"/>
			<polygon class="st4" points="1546.64,1557.75 1301.31,1614.46 1301.31,1653.59 1345.77,1653.59 1345.77,1633.63 1553.22,1611.26 
							"/>
			
				<rect x="1534.61" y="1263.1" transform="matrix(-1 -1.224647e-16 1.224647e-16 -1 3120.7673 2916.1069)" class="st5" width="51.54" height="389.92"/>
			<polygon class="st4" points="1504.24,1270.68 1616.61,1270.68 1631.43,1209.58 1489.42,1209.58 			"/>
			<path class="st6" d="M1610.03,668.86h259.62c40.39,0,69.29,37.87,57.5,75.35l-135.13,429.51c-8.34,26.52-33.57,44.64-62.16,44.64
				h-409.61c-20.91,0-37.87-16.45-37.87-36.74V1074.6c0,0,299.66-146.96,293.07-158.14
				C1568.87,905.28,1610.03,668.86,1610.03,668.86z"/>
			<path class="st7" d="M1560.54,1257.8h0.09c1.6,0,2.89-1.29,2.89-2.89v-29.57c0-1.6-1.29-2.89-2.89-2.89h-0.09
				c-1.6,0-2.89,1.29-2.89,2.89v29.57C1557.65,1256.51,1558.94,1257.8,1560.54,1257.8z"/>
			<path class="st7" d="M1543.28,1597.85v0.09c0,1.6,1.29,2.89,2.89,2.89h29.56c1.6,0,2.89-1.29,2.89-2.89v-0.09
				c0-1.6-1.29-2.89-2.89-2.89h-29.56C1544.57,1594.96,1543.28,1596.25,1543.28,1597.85z"/>
		</g>
		<path class="st8" d="M1581.18,537.34l13.02-4.34c-5.13,15.78,2.37,35.51,20.12,40.25c17.76,4.73,63.53-36.7,65.11-46.56
			c5.92,6.31,11.44,11.44,11.44,11.44l-37.88,246.61c0,0-165.72,6.71-165.72,1.97C1487.27,781.99,1540.14,590.22,1581.18,537.34z"/>
		<path class="st9" d="M1631.68,763.83c14.99-105.75,59.19-225.7,59.19-225.7l31.57,11.05l0.79,4.73c0,0,62.34,17.36,67.08,21.31
			s44.19,97.07,52.87,213.07s6.31,164.94-8.68,164.94s-221.76,1.58-221.76,1.58L1631.68,763.83z"/>
		<path class="st10" d="M1678.24,735.82c-0.27,0-0.55-0.05-0.82-0.15c-1.23-0.46-1.85-1.82-1.4-3.04
			c11.55-31.08,28.6-77.46,31.14-85.58c-3.28-3-12.42-11.38-14.17-13.48c-0.63-0.76-0.82-1.76-0.5-2.67
			c0.79-2.27,3.72-3.29,18.42-6.37c2.57-0.54,5.63-1.18,7.25-1.61c0.04-3.95-0.17-15.79-0.37-27.3c-0.23-13.23-0.5-28.22-0.5-36.95
			c0-1.31,1.06-2.37,2.37-2.37c1.31,0,2.37,1.06,2.37,2.37c0,8.69,0.26,23.66,0.5,36.87c0.49,27.71,0.44,28.95,0.17,29.77
			c-0.07,0.2-0.16,0.39-0.28,0.56c-0.77,1.16-1.56,1.4-10.54,3.29c-3.82,0.8-10.23,2.15-13.5,3.2c3.03,2.99,8.95,8.46,13.01,12.15
			c0.3,0.27,0.52,0.62,0.65,1c0.34,1.02,0.66,1.98-31.59,88.78C1680.11,735.23,1679.2,735.82,1678.24,735.82z"/>
		<path class="st10" d="M1756.37,675.84c-0.01,0-0.01,0-0.01,0c-1.31-0.01-2.37-1.08-2.35-2.39c0-0.5,0.61-50.3,19.13-93.25
			c0.52-1.2,1.91-1.76,3.11-1.24c1.2,0.52,1.75,1.91,1.24,3.11c-18.13,42.05-18.74,90.93-18.75,91.41
			C1758.73,674.8,1757.67,675.84,1756.37,675.84z"/>
		<path class="st10" d="M1770.02,908.9c-0.17-0.74-4.33-17.82-17.99-26.41V772.12c0-1.31-1.06-2.37-2.37-2.37s-2.37,1.06-2.37,2.37
			v106.97c-0.02,0-0.03,0-0.04,0c-2.09-0.08-3.33,1.55-4.14,2.64c0,0.01-0.01,0.01-0.01,0.02c-4.62-5.69-19.54,2.21-25.81,5.93
			c-1.12,0.67-1.5,2.12-0.83,3.24c0.44,0.75,1.23,1.16,2.04,1.16c0.41,0,0.83-0.11,1.2-0.33c9.39-5.56,18.7-8.5,19.73-7
			c0.29,0.43,1.04,1.5,2.22,2.03c11.36,20.18,11.27,41.94,11.26,42.16c-0.02,1.31,1.03,2.38,2.34,2.4c0.01,0,0.02,0,0.03,0
			c1.29,0,2.35-1.04,2.37-2.34c0.01-0.94,0.11-22.61-11.38-43.64c0.24-0.28,0.44-0.56,0.63-0.81c0.07-0.09,0.14-0.19,0.22-0.3
			c0.14,0.19,0.31,0.44,0.51,0.77c0.02,0.04,0.06,0.07,0.09,0.1c0.06,0.09,0.13,0.16,0.2,0.23c0.13,0.15,0.27,0.27,0.44,0.38
			c0.05,0.03,0.07,0.08,0.12,0.11c12.81,7.27,16.88,23.96,16.92,24.13c0.26,1.09,1.23,1.83,2.3,1.83c0.18,0,0.36-0.02,0.54-0.06
			C1769.53,911.44,1770.32,910.17,1770.02,908.9z"/>
		<path class="st9" d="M1527.51,782.77c-4.73-102.59,53.66-245.43,53.66-245.43l-33.14,7.1l-3.95,4.73l-55.24,14.99
			c-14.2,11.05-102.59,298.3-107.33,310.93c-5.52,12.63-112.06,78.13-112.06,78.13h265.95L1527.51,782.77z"/>
		<g>
			<g>
				<path class="st2" d="M1266.69,1560.63c19.08,43.77,9.94,91.63,7.9,92.44c-3,0.73-221.18,0.02-221.18,0.02
					c6.3-17.48,33.95-38.61,85.43-54.95s67.43-37.42,68.06-43.2C1207.54,1549.15,1266.69,1560.63,1266.69,1560.63z"/>
				<path class="st0" d="M1247.42,1612.06c10.07-8.33,21.32-13.1,29.34-15.43c4.51,30.55-0.69,55.85-2.17,56.44
					c-3,0.73-221.18,0.02-221.18,0.02c6.3-17.48,33.95-38.61,85.43-54.95c21.76-6.9,37.15-14.65,47.74-21.74
					c7.22,6.66-3.42,22.97-1.2,28.33C1188.07,1611.26,1229.74,1626.69,1247.42,1612.06z"/>
				<path class="st11" d="M1059.55,1642.54c17.1,0.05,195.55,0.61,217.62,0.08c-0.9,6.36-2.01,10.22-2.57,10.45
					c-3,0.73-221.18,0.02-221.18,0.02C1054.64,1649.69,1056.7,1646.15,1059.55,1642.54z"/>
				<path class="st11" d="M1182.7,1604.76c0.78-0.65,1.01-1.77,0.48-2.65c-0.58-0.96-1.84-1.25-2.82-0.65
					c-39.88,24.44-79.79,29.93-80.19,29.98c-1.13,0.15-1.96,1.18-1.84,2.3c0.12,1.12,1.13,1.91,2.26,1.76
					c0.41-0.05,41.2-5.67,81.85-30.58C1182.53,1604.88,1182.62,1604.82,1182.7,1604.76z"/>
				<path class="st11" d="M1163.08,1599.2c1.16,1.4,3.27,1.57,4.71,0.37c1.44-1.19,1.67-3.3,0.51-4.7c-1.16-1.4-3.27-1.57-4.71-0.37
					C1162.16,1595.7,1161.93,1597.8,1163.08,1599.2z"/>
				<path class="st11" d="M1131.68,1610.75c1.16,1.4,3.27,1.57,4.71,0.37s1.67-3.3,0.51-4.7c-1.16-1.4-3.27-1.57-4.71-0.37
					C1130.75,1607.25,1130.52,1609.35,1131.68,1610.75z"/>
				<path class="st11" d="M1095.32,1624.5c1.16,1.4,3.27,1.57,4.71,0.37c1.44-1.19,1.67-3.3,0.51-4.7c-1.16-1.4-3.27-1.57-4.71-0.37
					C1094.39,1621,1094.16,1623.1,1095.32,1624.5z"/>
				<path class="st11" d="M1166.03,1597.31c0.37-0.3,0.5-0.83,0.28-1.26c-0.11-0.22-2.69-5.34-5.89-8.93
					c-0.37-0.42-1.07-0.46-1.45-0.06c-0.43,0.38-0.48,1.03-0.11,1.45c3.02,3.39,5.57,8.45,5.6,8.5c0.25,0.5,0.87,0.69,1.38,0.43
					C1165.91,1597.4,1165.97,1597.36,1166.03,1597.31z"/>
				<path class="st11" d="M1135.11,1609.44c0.37-0.3,0.5-0.83,0.28-1.26c-0.11-0.22-2.69-5.34-5.89-8.93
					c-0.37-0.42-1.07-0.46-1.45-0.06c-0.43,0.38-0.48,1.03-0.11,1.45c3.02,3.39,5.57,8.45,5.6,8.5c0.25,0.5,0.87,0.69,1.38,0.43
					C1134.99,1609.53,1135.05,1609.49,1135.11,1609.44z"/>
				<path class="st11" d="M1099.28,1624.65c0.37-0.3,0.5-0.83,0.28-1.26c-0.11-0.22-2.69-5.34-5.89-8.93
					c-0.37-0.42-1.07-0.46-1.45-0.06c-0.43,0.38-0.48,1.03-0.11,1.45c3.02,3.39,5.57,8.45,5.6,8.5c0.25,0.5,0.87,0.69,1.38,0.43
					C1099.16,1624.74,1099.22,1624.7,1099.28,1624.65z"/>
				<path class="st3" d="M1236.08,1601.37c2.75-2.27,5.16-5.75,6.94-10.15c0.22-0.53-0.04-1.12-0.56-1.32
					c-0.53-0.2-1.13,0.07-1.34,0.6c-2.81,6.94-7.22,11.35-11.8,11.78c-4.51,0.43-8.98-2.92-12.91-9.68
					c-0.28-0.48-0.91-0.64-1.41-0.34c-0.49,0.29-0.67,0.92-0.39,1.41c5.5,9.44,11.1,11,14.84,10.65
					C1231.76,1604.11,1234.01,1603.08,1236.08,1601.37z"/>
			</g>
			<path class="st12" d="M1053.42,1653.09c0.28-0.78,0.62-1.57,0.98-2.36c0.06-0.13,0.12-0.26,0.18-0.39
				c1.55-3.24,3.8-6.58,6.78-9.98c0.54-0.61,1.1-1.23,1.68-1.84c4.17-4.4,9.53-8.88,16.15-13.33c0.88-0.59,1.79-1.19,2.72-1.78
				c3.4-2.17,7.11-4.33,11.11-6.47c-0.3-0.37-0.59-0.74-0.9-1.08c-0.37-0.42-0.32-1.06,0.11-1.45c0.39-0.39,1.08-0.35,1.45,0.06
				c0.42,0.47,0.82,0.97,1.22,1.47c9.59-5,20.84-9.85,33.79-14.4c-0.25-0.3-0.49-0.61-0.74-0.9c-0.37-0.42-0.32-1.06,0.11-1.45
				c0.39-0.39,1.08-0.36,1.45,0.06c0.44,0.49,0.86,1.02,1.28,1.55c2.63-0.9,5.31-1.8,8.07-2.67c0.04-0.01,0.08-0.02,0.11-0.04
				c1.45-0.46,2.87-0.93,4.27-1.4c0.49-0.17,0.97-0.33,1.46-0.5c0.93-0.32,1.86-0.64,2.76-0.96c0.55-0.19,1.09-0.39,1.63-0.59
				c0.82-0.3,1.64-0.6,2.44-0.9c0.55-0.2,1.09-0.41,1.63-0.62c0.78-0.3,1.54-0.59,2.29-0.89c0.52-0.21,1.05-0.41,1.56-0.62
				c0.77-0.31,1.52-0.62,2.26-0.93c0.34-0.14,0.69-0.28,1.02-0.43c-0.46-0.61-0.93-1.21-1.42-1.76c-0.37-0.42-0.32-1.06,0.11-1.45
				c0.39-0.39,1.08-0.35,1.45,0.06c0.64,0.72,1.25,1.51,1.83,2.3c0.56-0.24,1.12-0.48,1.67-0.73c0.59-0.26,1.15-0.53,1.73-0.79
				c0.51-0.23,1.03-0.47,1.53-0.7c0.62-0.29,1.22-0.58,1.81-0.87c0.42-0.2,0.84-0.41,1.26-0.61c0.63-0.31,1.24-0.62,1.85-0.92
				c0.34-0.17,0.68-0.35,1.02-0.52c0.65-0.33,1.29-0.67,1.92-1c0.21-0.11,0.42-0.22,0.62-0.34c4.1-2.21,7.74-4.41,10.93-6.55h0
				c14.47-9.68,19.96-18.13,20.33-21.46c0.63-5.78,59.79,5.69,59.79,5.69c5.25,12.05,8.36,24.4,10.07,36l0,0l0,0.01
				c0.11,0.78,0.22,1.55,0.32,2.32c0.04,0.32,0.08,0.64,0.12,0.95c0.1,0.78,0.19,1.55,0.28,2.32c0.01,0.12,0.03,0.24,0.04,0.36
				c0.18,1.66,0.34,3.29,0.47,4.91c0.01,0.13,0.02,0.25,0.03,0.38c0.06,0.8,0.12,1.59,0.17,2.38c0.01,0.19,0.02,0.38,0.04,0.57
				c0.15,2.46,0.25,4.85,0.29,7.16c0,0.13,0.01,0.27,0.01,0.4c0.01,0.77,0.02,1.53,0.03,2.28c0,0.06,0,0.13,0,0.19
				c0.01,2.32-0.03,4.55-0.11,6.68c0,0.14-0.01,0.28-0.02,0.42c-0.08,2.07-0.19,4.04-0.33,5.91c-0.01,0.11-0.02,0.23-0.02,0.34
				c-0.05,0.58-0.09,1.14-0.14,1.7c-0.01,0.16-0.03,0.32-0.04,0.49c-0.15,1.65-0.32,3.19-0.51,4.63c-0.03,0.22-0.06,0.45-0.09,0.67
				c-0.05,0.39-0.11,0.78-0.16,1.15c-0.04,0.25-0.07,0.49-0.11,0.74c-0.08,0.56-0.17,1.09-0.26,1.6c-0.05,0.27-0.09,0.55-0.14,0.81
				c-0.05,0.27-0.1,0.52-0.14,0.78c-0.05,0.27-0.1,0.52-0.15,0.78c-0.04,0.21-0.08,0.43-0.13,0.63c-0.09,0.41-0.17,0.81-0.26,1.17
				c-0.03,0.13-0.06,0.24-0.09,0.36c-0.07,0.27-0.13,0.52-0.19,0.76c-0.03,0.12-0.06,0.24-0.1,0.35c-0.05,0.18-0.1,0.34-0.15,0.5
				c-0.01,0.02-0.01,0.03-0.02,0.05c-0.01,0.04-0.03,0.08-0.04,0.12c-0.02,0.06-0.04,0.13-0.06,0.19c-0.08,0.25-0.16,0.46-0.24,0.65
				c-0.02,0.05-0.04,0.09-0.06,0.13c-0.05,0.12-0.11,0.22-0.16,0.31c-0.01,0.02-0.02,0.05-0.04,0.06c-0.01,0.02-0.02,0.03-0.04,0.05
				c-0.07,0.1-0.13,0.17-0.19,0.19c-0.42,0.1-5.1,0.18-12.83,0.23c-0.86,0.01-1.76,0.01-2.69,0.02c-4.66,0.03-10.22,0.05-16.48,0.06
				c-1.25,0-2.53,0.01-3.83,0.01C1176.14,1653.49,1053.42,1653.09,1053.42,1653.09L1053.42,1653.09L1053.42,1653.09z"/>
		</g>
		<g>
			<path class="st0" d="M1521.57,1596.95c5.26,44.22,0,64.22-4.21,64.22s-126.34,0-126.34,0c-2.11-14.74,75.8-86.33,75.8-86.33
				l56.85-14.74L1521.57,1596.95z"/>
			<path class="st13" d="M1514.46,1587.47c-1.58,48.43-40.53,73.17-53.96,37.11c-46.32,28.16-19.74-21.58,2.37-48.17
				S1514.46,1587.47,1514.46,1587.47z"/>
			<path class="st13" d="M1521.87,1652.75c-1.26,5.68-2.96,8.42-4.52,8.42c-4.21,0-126.34,0-126.34,0
				c-0.28-1.93,0.84-4.84,2.95-8.42C1425.46,1652.75,1510.84,1652.75,1521.87,1652.75z"/>
			<path class="st0" d="M1503.14,1609.06c0.6,0,1.2-0.26,1.62-0.76c0.74-0.89,0.63-2.22-0.27-2.97
				c-18.77-15.69-43.53-13.21-52.61-8.41c-1.03,0.54-1.42,1.82-0.88,2.85c0.54,1.03,1.82,1.42,2.85,0.88
				c7.95-4.21,30.92-6.31,47.94,7.91C1502.19,1608.9,1502.67,1609.06,1503.14,1609.06z"/>
		</g>
		<g>
			<path class="st14" d="M1705.72,938.52h-259.52c-11.94,0-21.63-9.68-21.63-21.63V764.24c0-11.94,9.68-21.63,21.63-21.63h259.52
				c11.94,0,21.63,9.68,21.63,21.63V916.9C1727.35,928.84,1717.67,938.52,1705.72,938.52z"/>
			<path class="st15" d="M1722.38,938.52h-292.83c-2.74,0-4.97,2.22-4.97,4.97v4.05c0,2.74,2.22,4.97,4.97,4.97h292.83
				c2.74,0,4.97-2.22,4.97-4.97v-4.05C1727.35,940.75,1725.12,938.52,1722.38,938.52z"/>
			<path class="st16" d="M1705.72,742.62h-259.52c-5.12,0-9.81,1.79-13.51,4.76l291.69,180.41c1.87-3.2,2.96-6.91,2.96-10.88V764.24
				C1727.35,752.3,1717.67,742.62,1705.72,742.62z"/>
			<ellipse class="st17" cx="1575.96" cy="838.82" rx="15.98" ry="8.11"/>
		</g>
		<path class="st18" d="M1745.22,998.51c-26.83,64.71-104.86,170.16-120.64,170.16c-12.63,124.69-101.01,440.35-101.01,440.35
			s-55.09-39.97-56.74-34.19s-33.22,29.45-33.22,29.45c0-4.73-7.89-34.72-7.89-34.72s11.05-20.52,12.63-26.83
			c1.58-6.31,59.98-437.2,53.66-435.62c-6.31,1.58-82.07,6.31-82.07,6.31c-6.31,3.95-11.05,3.16-11.05,3.16
			c7.89,14.21-3.16,25.25-3.16,25.25l-116.8,447.46c-10.26,0-96.28-26.04-96.28-26.04s84.44-520.85,92.33-531.11
			c7.89-10.26,6.31-29.2,61.55-33.93C1391.78,993.48,1745.22,998.51,1745.22,998.51z"/>
		<path class="st19" d="M1650.82,1067.39c-0.05-1.31-1.17-2.37-2.45-2.29c-1.31,0.04-2.33,1.14-2.29,2.45
			c0.8,23.49-7.59,39.31-12.69,46.7c0.42-26.62-2.68-46.25-2.73-46.57c-0.21-1.29-1.43-2.17-2.72-1.96
			c-1.29,0.21-2.17,1.43-1.96,2.72c0.08,0.5,8.06,51.03-3.71,99.68c-0.02,0.11-0.04,0.21-0.05,0.32
			c-11.77,116.27-90.62,402.76-100.03,436.68c-19.5-14.05-49.92-34.99-55.66-33.01c-0.98,0.34-1.71,1.1-1.99,2.08
			c-0.87,2.91-15.23,15.14-29.15,25.78c-1.58-8.58-5.95-25.49-7.16-30.1c2.12-3.97,10.93-20.7,12.4-26.56
			c0.89-3.57,16.4-117.24,29.51-218.44c24.33-187.92,25.41-213.74,24.26-218.31l0.19-4.21c1.87-42.34,4.46-100.29,100.5-96.45
			c1.31,0.03,2.41-0.96,2.46-2.27c0.05-1.31-0.96-2.41-2.27-2.46c-100.76-4.07-103.58,59.14-105.42,100.97l-0.22,4.86
			c-0.03,0.54,0.13,1.06,0.44,1.49c2.68,20.44-53.27,430.33-54.03,433.67c-1.23,4.94-9.38,20.65-12.41,26.28
			c-0.28,0.53-0.36,1.14-0.21,1.72c3.02,11.48,7.81,30.89,7.81,34.12c0,0.9,0.51,1.72,1.31,2.12c0.8,0.4,1.76,0.31,2.48-0.22
			c7.1-5.32,29.42-22.39,33.52-29.47c5.91,1.34,31.29,18.02,53.63,34.22c0.41,0.3,0.9,0.45,1.39,0.45c0.26,0,0.52-0.04,0.78-0.13
			c0.73-0.25,1.29-0.85,1.5-1.6c0.88-3.16,88.51-317.02,101.07-440.59c3.87-16.04,5.63-32.25,6.24-46.88
			C1635.1,1120.19,1651.98,1101.62,1650.82,1067.39z"/>
		<path class="st19" d="M1412.07,1112.43c-6.8-14.46-18.24-25.08-33.99-31.56c-1.2-0.49-2.59,0.08-3.09,1.29
			c-0.5,1.21,0.08,2.59,1.29,3.09c13.9,5.72,24.16,14.87,30.54,27.23c-3.17,1.58-5.6,1.81-6.77,1.82
			c-2.76-3.23-13.52-15.2-26.93-21.91c-1.17-0.59-2.59-0.11-3.18,1.06c-0.59,1.17-0.11,2.59,1.06,3.18
			c13.44,6.72,24.46,19.56,25.89,21.28c6.74,12.34-2.44,21.88-2.83,22.28c-0.3,0.3-0.51,0.67-0.62,1.08l-116.29,445.53
			c-12.73-1.78-68.03-18.01-91.82-25.18c23.5-144.91,84.8-516.29,91.54-528c1.54-2,2.7-4.22,3.93-6.56
			c5.3-10.1,11.9-22.68,55.95-26.46c1.3-0.11,2.27-1.26,2.16-2.56c-0.11-1.3-1.25-2.29-2.56-2.16c-46.64,4-54.21,18.43-59.74,28.98
			c-1.13,2.16-2.2,4.2-3.49,5.87c-8.02,10.43-84.14,478.8-92.79,532.17c-0.19,1.17,0.52,2.3,1.65,2.64
			c3.53,1.07,86.47,26.14,96.96,26.14c1.08,0,2.02-0.73,2.29-1.77l116.65-446.9c1.99-2.3,9.37-11.97,4.66-24.2
			c2.25-0.35,5.27-1.25,8.66-3.36C1412.2,1114.81,1412.58,1113.51,1412.07,1112.43z"/>
		<path class="st10" d="M1482.53,734.64c-0.18,0-0.36-0.02-0.54-0.06c-1.27-0.29-2.07-1.57-1.77-2.84
			c2.03-8.75,19.88-85.69,23.07-92.07c2.41-4.82,11.23-7.95,18.31-10.47c1.2-0.43,2.54-0.9,3.7-1.35c-1.86-0.62-4.27-1.29-6.13-1.8
			c-7.11-1.98-9.9-2.88-10.99-4.53c-0.87-1.31-2.33-3.49,27.46-65.47c0.57-1.18,1.98-1.67,3.16-1.11c1.18,0.57,1.68,1.98,1.11,3.16
			c-12.36,25.71-25.57,54.68-27.27,60.95c1.64,0.72,5.27,1.73,7.81,2.44c8.04,2.23,10.92,3.2,11.71,5.34
			c0.32,0.87,0.21,1.81-0.31,2.59c-0.98,1.47-3.36,2.36-8.66,4.25c-5.27,1.87-14.1,5.01-15.66,8.13
			c-2.22,4.45-14.79,56.87-22.7,91.02C1484.58,733.9,1483.61,734.64,1482.53,734.64z"/>
		<path class="st10" d="M1454.91,737c-0.12,0-0.23-0.01-0.35-0.03c-1.29-0.19-2.18-1.4-1.99-2.69
			c0.71-4.75,17.61-116.8,35.66-160.75c0.5-1.21,1.88-1.79,3.09-1.29c1.21,0.5,1.79,1.88,1.29,3.09
			c-17.83,43.43-35.19,158.49-35.36,159.65C1457.07,736.16,1456.07,737,1454.91,737z"/>
		<path class="st10" d="M1390.2,927.98c-1.31,0-2.37-1.06-2.37-2.37c0-24.55-8.47-49.49-8.55-49.74c-0.31-0.91-0.04-1.92,0.68-2.55
			s1.76-0.77,2.62-0.34c18.01,9.01,23.82,25.12,24.06,25.8c0.43,1.23-0.22,2.58-1.45,3.01c-1.23,0.43-2.58-0.21-3.02-1.45
			c-0.05-0.13-4.31-11.83-16.6-20.14c2.58,9.01,6.99,27.08,6.99,45.4C1392.56,926.92,1391.5,927.98,1390.2,927.98z"/>
		<g>
			<path class="st20" d="M1708.74,452.01c0,10.21-8.28,18.49-18.49,18.49c-10.21,0-18.49-8.28-18.49-18.49
				c0-10.21,8.28-18.49,18.49-18.49C1700.46,433.53,1708.74,441.8,1708.74,452.01z"/>
			<path class="st3" d="M1690.25,438.69c-1.64,0-3.21,0.31-4.67,0.86c-0.1,0.02-0.19,0.05-0.27,0.1c-4.91,1.97-8.39,6.76-8.39,12.36
				c0,0.6,0.49,1.09,1.09,1.09c0.6,0,1.09-0.49,1.09-1.09c0-4.67,2.89-8.67,6.96-10.32c4.91,0.13,8.87,4.15,8.87,9.1
				c0,5.02-4.09,9.11-9.11,9.11c-0.6,0-1.09,0.49-1.09,1.09c0,0.6,0.49,1.09,1.09,1.09c6.22,0,11.28-5.06,11.28-11.28
				c0-4.24-2.35-7.94-5.82-9.86c5.66,0.53,10.1,5.3,10.1,11.09c0,0.6,0.49,1.09,1.09,1.09c0.6,0,1.09-0.49,1.09-1.09
				C1703.57,444.67,1697.6,438.69,1690.25,438.69z"/>
		</g>
		<path class="st0" d="M1612.69,474.52c-9.36,0-19.24-1.64-28.05-5.54c-0.6-0.26-0.87-0.96-0.6-1.56c0.26-0.6,0.97-0.87,1.56-0.6
			c17.51,7.75,40.17,6.09,52.61,0.59c0.6-0.26,1.3,0.01,1.56,0.6c0.26,0.6-0.01,1.3-0.6,1.56
			C1632.3,472.61,1622.8,474.52,1612.69,474.52z"/>
		<path class="st3" d="M1607.39,486.88c-5.26,0-11.56-1.02-15.09-4.36c-0.48-0.45-0.5-1.2-0.05-1.67c0.45-0.48,1.2-0.49,1.67-0.05
			c5.14,4.86,17.97,3.89,20.66,2.86c0.61-0.24,1.29,0.07,1.53,0.68c0.23,0.61-0.07,1.3-0.68,1.53
			C1614.03,486.41,1610.95,486.88,1607.39,486.88z"/>
		<path class="st3" d="M1596.66,510.51c15.68,2.81,34.03-1.78,34.03-1.78C1625.37,524.27,1604.51,535.82,1596.66,510.51z"/>
		<g>
			<path class="st0" d="M1638.78,425.63c0,3.73-2.05,6.76-4.59,6.76s-4.59-3.03-4.59-6.76s2.05-6.76,4.59-6.76
				S1638.78,421.9,1638.78,425.63z"/>
			<path class="st0" d="M1632.25,438.94c-0.28,0-0.54-0.16-0.65-0.43c-0.15-0.36,0.02-0.78,0.38-0.93c0.06-0.03,6.01-2.6,7.37-6.81
				c0.12-0.37,0.52-0.57,0.89-0.46c0.37,0.12,0.58,0.52,0.46,0.89c-1.56,4.84-7.9,7.57-8.17,7.69
				C1632.44,438.92,1632.34,438.94,1632.25,438.94z"/>
		</g>
		<g>
			<path class="st0" d="M1596.12,421.39c0,3.73-2.05,6.76-4.59,6.76c-2.53,0-4.59-3.03-4.59-6.76c0-3.73,2.05-6.76,4.59-6.76
				C1594.07,414.63,1596.12,417.65,1596.12,421.39z"/>
			<path class="st0" d="M1588.99,433.42c-0.28,0-0.54-0.16-0.65-0.43c-0.15-0.36,0.02-0.78,0.38-0.93c0.06-0.03,6.01-2.6,7.37-6.81
				c0.12-0.37,0.52-0.57,0.89-0.46c0.37,0.12,0.58,0.52,0.46,0.89c-1.56,4.84-7.9,7.57-8.17,7.69
				C1589.18,433.4,1589.09,433.42,1588.99,433.42z"/>
		</g>
		<path class="st0" d="M1656.89,411.23c-14.65-5.77-31.67-7.84-31.67-7.84c0.44-2.07,7.55-10.95,18.64-7.84
			C1654.96,398.65,1656.89,411.23,1656.89,411.23z"/>
		<path class="st0" d="M1624.7,403.01c-1.7-5.77,1.48-9.25,1.11-9.25C1621.3,394.88,1620.34,401.02,1624.7,403.01z"/>
		<path class="st0" d="M1574.86,401.81c9.27-2.96,23.08,0.99,23.08,0.99C1592.37,391.84,1577.23,382.87,1574.86,401.81z"/>
		<path class="st0" d="M1596.96,394.21c2.66,2.17,1.63,7.84,1.63,7.84C1603.47,395,1596.96,394.21,1596.96,394.21z"/>
		<path class="st0" d="M1601.99,455.47c-0.02,0-0.04,0-0.06,0c-9.44-0.48-12.93-4.6-14-6.35c-1.15-1.88-1.38-3.9-0.63-5.54
			c0.59-1.3,2.82-5.06,5.64-9.83c3.86-6.52,9.7-16.37,10.11-18.21c0.47-2.07-1.51-7.15-2.86-9.86c-0.29-0.58-0.06-1.3,0.53-1.59
			c0.58-0.29,1.3-0.06,1.59,0.53c0.4,0.8,3.86,7.88,3.06,11.45c-0.46,2.04-4.6,9.12-10.39,18.89c-2.56,4.33-4.99,8.42-5.52,9.6
			c-0.41,0.9-0.22,2.14,0.5,3.32c0.87,1.43,3.78,4.79,12.09,5.21c0.65,0.03,1.16,0.59,1.12,1.24
			C1603.14,454.98,1602.62,455.47,1601.99,455.47z"/>
		<path class="st0" d="M1609.88,452.4c-0.16,0.68-1.9,0.84-3.89,0.38c-1.99-0.47-3.47-1.4-3.31-2.07c0.16-0.68,1.9-0.84,3.89-0.38
			C1608.56,450.79,1610.04,451.72,1609.88,452.4z"/>
		<path class="st3" d="M1611.61,456.86c-0.42,0-0.8-0.28-0.91-0.7c-0.14-0.51,0.16-1.02,0.67-1.16c2-0.54,3.19-1.32,3.54-2.32
			c0.45-1.3-0.34-3.3-2.43-6.11c-0.31-0.42-0.22-1.01,0.2-1.32c0.42-0.31,1.01-0.22,1.32,0.2c2.56,3.45,3.39,5.88,2.7,7.87
			c-0.58,1.65-2.16,2.81-4.84,3.53C1611.77,456.85,1611.69,456.86,1611.61,456.86z"/>
		<path class="st8" d="M1666.83,397.39c-1.15,0-2.31-0.04-3.47-0.12c-0.65-0.05-1.14-0.61-1.09-1.27c0.05-0.65,0.63-1.13,1.27-1.09
			c15.85,1.14,31.98-6.71,32.14-6.79c0.59-0.29,1.3-0.05,1.59,0.54c0.29,0.59,0.05,1.3-0.54,1.59
			C1696.09,390.55,1682.06,397.39,1666.83,397.39z"/>
		<path class="st8" d="M1668.41,405.08c-1.15,0-2.31-0.04-3.47-0.12c-0.65-0.05-1.14-0.61-1.09-1.27c0.05-0.65,0.63-1.13,1.27-1.09
			c15.85,1.14,31.98-6.71,32.14-6.79c0.59-0.29,1.3-0.05,1.59,0.54c0.29,0.59,0.05,1.3-0.54,1.59
			C1697.67,398.25,1683.64,405.08,1668.41,405.08z"/>
	</g>
	<path class="st2" d="M1992.33,755.25c-1.48-4.14-30.48-47.35-37.88-50.31c-7.4-2.96-109.79,0.89-112.75,4.44
		c-2.96,3.55-2.66,11.54,6.51,13.91c9.17,2.37,55.64,1.78,54.45,3.26c-3.55,3.26-5.92,16.57-2.66,20.72
		c3.26,4.14,2.37,22.79,6.51,33.44c4.14,10.65,36.7,6.51,45.57,5.33c8.88-1.18,19.24,4.74,19.24,4.74L1992.33,755.25z"/>
	<path class="st3" d="M1955.05,717.71c-0.63-0.17-1.28,0.2-1.45,0.84c-1.35,5.02-24.42,7.27-35.5,8.35
		c-4.45,0.43-7.96,0.78-9.76,1.15c-3.66,0.76-6.17,5.13-5.71,9.95c0.55,5.79,5.36,12.05,17.18,12.22
		c17.43,0.26,28.94,0.75,29.94,5.01c0.13,0.53-0.03,1.07-0.48,1.64c-2.57,3.29-13.77,6.72-33.01,6.96c-0.65,0.01-1.18,0.55-1.17,1.2
		c0.01,0.65,0.54,1.17,1.18,1.17h0.02c14.6-0.19,26.17-2.24,31.9-5.5c1.83,1.68,2.84,3.4,2.83,5.01c-0.01,1.48-0.82,2.9-2.42,4.23
		c-2.94,2.44-8.24,4.32-15.34,5.45c-0.65,0.1-1.09,0.71-0.98,1.35c0.09,0.58,0.6,1,1.17,1c0.06,0,0.12,0,0.19-0.02
		c5.9-0.94,10.66-2.41,14.02-4.31c1.32,2.06,1.72,3.9,1.08,5.45c-1.14,2.77-5.38,4.9-11.93,5.99c-0.65,0.11-1.08,0.72-0.97,1.36
		c0.1,0.58,0.6,0.99,1.17,0.99c0.06,0,0.13,0,0.2-0.02c7.5-1.25,12.24-3.82,13.73-7.43c0.96-2.32,0.52-4.9-1.27-7.66
		c0.15-0.11,0.32-0.22,0.46-0.34c2.13-1.77,3.26-3.86,3.27-6.04c0.01-2.16-1.14-4.35-3.23-6.39c0.37-0.33,0.71-0.66,0.98-1
		c0.89-1.14,1.21-2.4,0.92-3.64c-1.36-5.77-10.86-6.51-32.21-6.83c-10.26-0.15-14.4-5.31-14.86-10.08c-0.34-3.57,1.38-6.89,3.83-7.4
		c1.68-0.35,5.3-0.7,9.51-1.11c18.86-1.84,35.92-4,37.56-10.1C1956.06,718.53,1955.68,717.88,1955.05,717.71z"/>
	<path class="st21" d="M2281.95,667.56c-11.84,24.46-139.88,174.31-144.61,168.78c-26.04-26.04-142.35-82.27-142.35-82.27
		c-8.68,14.2-25.55,38.18-25.55,38.18c1.58,5.52,119.16,154.68,163.36,159.41c44.19,4.73,135.74-29.2,135.74-29.2
		s33.93-180.72,33.93-184.66C2302.47,733.85,2281.95,667.56,2281.95,667.56z"/>
	<path class="st22" d="M1987.81,806.19c-1.03,0.81-2.52,0.63-3.32-0.39c-0.81-1.03-0.63-2.52,0.39-3.32
		c17.2-13.55,22.52-29.92,22.92-33.24c0.15-1.3,1.33-2.23,2.63-2.07c1.3,0.15,2.23,1.33,2.07,2.63
		C2011.78,775.89,2004.79,792.82,1987.81,806.19z"/>
	<path class="st22" d="M2017.64,834.51c-0.93,0.59-2.17,0.47-2.97-0.35c-0.4-0.41-9.83-10.18-18.03-23.77
		c-0.68-1.12-0.31-2.63,0.8-3.25c1.12-0.68,2.57-0.32,3.25,0.8c7.91,13.11,17.28,22.82,17.37,22.92c0.91,0.94,0.89,2.44-0.05,3.35
		C2017.9,834.32,2017.77,834.42,2017.64,834.51z"/>
	<path class="st22" d="M2021.78,813.88c-1.11,0.28-2.29-0.28-2.76-1.37c-0.04-0.09-3.89-9.01-11.52-14.16
		c-1.08-0.73-1.37-2.2-0.64-3.29c0.73-1.08,2.21-1.37,3.29-0.64c8.82,5.96,13.05,15.82,13.23,16.24c0.51,1.2-0.06,2.59-1.26,3.1
		C2022.01,813.81,2021.9,813.85,2021.78,813.88z"/>
	<path class="st22" d="M2044.37,801.11c-1.02,0.55-2.31,0.28-3.02-0.67c-0.09-0.12-9.46-12.48-23.36-15.83
		c-1.27-0.31-2.05-1.58-1.75-2.86s1.58-2.05,2.86-1.75c15.59,3.76,25.63,17.04,26.05,17.6c0.78,1.05,0.56,2.53-0.48,3.31
		C2044.57,800.99,2044.47,801.05,2044.37,801.11z"/>
	<path class="st22" d="M2001.6,766.6c0,2.72-2.21,4.93-4.93,4.93s-4.93-2.21-4.93-4.93c0-2.72,2.21-4.93,4.93-4.93
		S2001.6,763.87,2001.6,766.6z"/>
	<path class="st22" d="M2126.88,828.94c-0.49,0-0.98-0.15-1.4-0.46c-22.98-16.87-115.34-64.05-129.69-71.35l-24.38,36.43
		c-0.73,1.09-2.19,1.38-3.28,0.65c-1.09-0.73-1.38-2.2-0.65-3.28l25.55-38.18c0.67-0.99,1.96-1.34,3.04-0.8
		c4.36,2.21,107.1,54.26,132.22,72.71c1.05,0.77,1.28,2.26,0.51,3.31C2128.33,828.61,2127.61,828.94,2126.88,828.94z"/>
	<path class="st2" d="M2162.39,742.92c-8.29-13.02-22.1-54.85-35.51-65.11c-13.42-10.26-37.49-14.6-43.4-19.73
		s-6.31-9.08-10.65-8.68c-4.34,0.39-8.29,7.5,0,16.57c8.29,9.08,18.55,13.81,10.65,14.21c-7.89,0.39-76.15-5.92-82.07-4.74
		c-5.92,1.18-0.79,10.26,2.37,11.84c-1.58,6.71,0.39,10.65,3.55,11.84c0.39,5.92,18.55,22.1,35.12,28.41
		c16.57,6.31,70.63,2.76,74.97,31.57C2129.25,763.83,2163.58,757.52,2162.39,742.92z"/>
	<path class="st3" d="M2048.76,699.91c-0.05,0-0.11,0-0.16-0.01c-1.3-0.18-31.94-4.45-44.23-11.59c-0.57-0.33-0.76-1.05-0.43-1.62
		c0.33-0.56,1.05-0.76,1.62-0.43c11.89,6.91,43.05,11.25,43.37,11.3c0.65,0.09,1.1,0.69,1.01,1.33
		C2049.85,699.48,2049.34,699.91,2048.76,699.91z"/>
	<path class="st3" d="M2056.33,713.4c-12.25,0-36.12-4.21-48.44-13.25c-0.53-0.39-0.64-1.13-0.25-1.66
		c0.39-0.53,1.13-0.64,1.66-0.25c11.38,8.35,34.63,12.79,47.04,12.79c0.65,0,1.18,0.53,1.18,1.18S2056.98,713.4,2056.33,713.4z"/>
	<polygon class="st2" points="2360.87,588.64 2347.45,607.58 2323.78,611.53 2341.14,565.75 2363.24,549.18 	"/>
	<g>
		<polygon class="st4" points="2292.18,1557.75 2537.51,1614.46 2537.51,1653.59 2493.05,1653.59 2493.05,1633.63 2285.6,1611.26 		
			"/>
		<polygon class="st4" points="2259.25,1557.75 2013.93,1614.46 2013.93,1653.59 2058.38,1653.59 2058.38,1633.63 2265.84,1611.26 
					"/>
		
			<rect x="2247.23" y="1263.1" transform="matrix(-1 -1.224647e-16 1.224647e-16 -1 4545.9976 2916.1069)" class="st5" width="51.54" height="389.92"/>
		<polygon class="st4" points="2216.86,1270.68 2329.23,1270.68 2344.05,1209.58 2202.04,1209.58 		"/>
		<path class="st6" d="M2322.64,668.86h259.62c40.39,0,69.29,37.87,57.5,75.35l-135.13,429.51c-8.35,26.52-33.57,44.64-62.16,44.64
			h-409.61c-20.91,0-37.87-16.45-37.87-36.74V1074.6c0,0,299.66-146.96,293.07-158.14C2281.48,905.28,2322.64,668.86,2322.64,668.86
			z"/>
		<path class="st7" d="M2273.15,1257.8h0.09c1.6,0,2.89-1.29,2.89-2.89v-29.57c0-1.6-1.29-2.89-2.89-2.89h-0.09
			c-1.6,0-2.89,1.29-2.89,2.89v29.57C2270.26,1256.51,2271.56,1257.8,2273.15,1257.8z"/>
		<path class="st7" d="M2255.89,1597.85v0.09c0,1.6,1.29,2.89,2.89,2.89h29.57c1.6,0,2.89-1.29,2.89-2.89v-0.09
			c0-1.6-1.29-2.89-2.89-2.89h-29.57C2257.19,1594.96,2255.89,1596.25,2255.89,1597.85z"/>
	</g>
	<path class="st8" d="M2279.39,659.66c0.2,6.31-8.48,63.92-22.69,91.54c-14.2,27.62-11.05,56.82-3.16,69.45
		c-8.68,24.46-22.89,67.08-24.46,61.55c-1.58-5.52-6.31-5.52-6.31-5.52c-3.16-21.31-60.37-133.76-60.37-133.76l-44.98,16.18
		c3.55,13.42,9.08,101.8,29.59,168.09c9.45,30.53,36.3,79.71,60.77,72.6c24.46-7.1,62.34-28.41,62.34-28.41
		c-3.95,5.52,0,17.36,0,17.36l164.15,14.2l33.93-29.99c2.37-42.61-10.26-252.53-31.57-303.04c-21.31-50.51-78.92-79.71-78.92-79.71
		s-34.72,14.99-48.14,30.78C2296.16,636.78,2279.39,659.66,2279.39,659.66z"/>
	<path class="st0" d="M2308.78,377.93c-46.56-7.89-97.86,11.05-94.7,56.03c3.16,44.98,5.52,55.24-18.94,74.97
		s-14.99,41.83-3.95,57.61c11.05,15.78-44.19,48.93-8.68,66.29h15.39c-4.34-3.55-6.31-24.86,3.16-31.96
		c-6.71,18.55,5.52,32.75,5.52,32.75l20.52-0.39c-3.55-9.47,0.79-12.23,0.79-12.23c0,7.5,5.92,11.84,5.92,11.84l17.36-1.97
		c-7.1-14.99,11.05-39.06,7.5-37.09c-6.31,30.38,0.79,37.49,0.79,37.49h27.62l18.94-6.51c5.92,5.33,37.49-1.78,37.49-1.78
		c-9.08-26.83-7.5-45.38,14.6-56.03c-19.33,19.33-5.13,53.27-5.13,53.27c18.15,0,26.83-6.31,26.83-6.31
		c-0.39-16.57-6.71-24.07-6.71-24.07c9.86,5.92,11.44,22.49,11.44,22.49c20.91,0,52.08-12.23,58-24.07s-4.74-46.96-16.57-73
		c-11.84-26.04-2.37-76.15-11.84-94.7C2404.67,402,2367.18,376.75,2308.78,377.93z"/>
	<path class="st2" d="M2273.07,406.94c-11.05,8.68-36.1,31.57-37.29,44.79c-1.18,13.22,1.58,20.52-5.72,29.79
		s-22.89,20.72-23.48,23.28c-0.59,2.56,6.31,9.67,9.47,12.43c3.16,2.76,2.96,4.54,1.78,8.88c-1.18,4.34-3.35,4.14-3.55,6.71
		c-0.2,2.56,5.52,9.08,6.51,9.86c-1.18,6.91-0.59,12.63,1.18,13.42c1.78,0.79,4.14,1.18,4.74,5.52c0.59,4.34-3.35,17.95,0.2,22.49
		c3.55,4.54,22.29,2.56,33.34,1.97c11.05-0.59,18.55,10.65,19.73,30.58c1.18,19.93-0.59,43.01-0.59,43.01
		c5.33-7.69,26.63-34.92,26.63-34.92c-2.37-21.31,21.9-49.72,32.55-65.11c10.65-15.39-1.18-46.17-1.18-46.17
		s-8.88-15.39-10.65-15.39c-21.31-4.14-15.39-42.02-15.39-42.02C2285.9,451.33,2273.86,428.24,2273.07,406.94z"/>
	<path class="st23" d="M2214.32,533.38c0.52,2.85,5.55,8.55,6.47,9.29c-1.12,6.53-0.64,11.95,0.92,13.19
		c6.84-2.78,18.01-7.97,29.46-16.05C2245.51,539.81,2225.24,532.21,2214.32,533.38z"/>
	<path class="st24" d="M2011.86,1636.97c9.47-4.26,17.76-9,24.86-13.14c7.1-4.14,30.19-52.68,34.33-61.55
		c4.14-8.88,19.53-37.29,25.45-37.29s57.41-11.84,57.41-11.84l5.55,23c0,0-29.81,37.96-34.55,44.48
		c-4.74,6.51-53.86,39.06-56.23,43.8c-2.37,4.73-39.06,26.63-39.06,26.63s-21.9-0.59-21.9-4.14
		C2007.72,1643.36,2011.86,1636.97,2011.86,1636.97z"/>
	<path class="st25" d="M2079.14,1162.36c9.47,25.25,83.65,363.02,83.65,363.02c-20.52,23.67-110.48,50.51-110.48,50.51
		l-67.87-279.36l61.55-154.68L2079.14,1162.36z"/>
	<g>
		<g>
			<g>
				<path class="st26" d="M2497.67,1450.27l4.71-0.52c-0.13-1.22-13.32-123.47-7.49-205.94l-4.72-0.34
					C2484.3,1326.39,2497.54,1449.04,2497.67,1450.27z"/>
			</g>
			<path class="st27" d="M2495.29,1246.21c17.18-22.9,3.76-97.55-4.73-81.68C2476.94,1189.99,2486.41,1258.05,2495.29,1246.21z"/>
			<g>
				<path class="st28" d="M2490.81,1342.43c13.6-74.66-30.73-139.37-79.04-148.12C2380.87,1284.56,2461.94,1334.96,2490.81,1342.43z
					"/>
				<path class="st29" d="M2411.77,1194.31c8.1,52.9,79.04,148.12,79.04,148.12C2461.94,1334.96,2380.87,1284.56,2411.77,1194.31z"
					/>
			</g>
			<g>
				<path class="st30" d="M2496.48,1420.42c-57.21-48.14-119.16-136.92-119.16-136.92
					C2404.54,1286.66,2476.75,1319.41,2496.48,1420.42z"/>
				<path class="st31" d="M2495.45,1415.66c-10.27-41.32-57.59-74.67-88.58-92.57c-17.88-22.86-29.56-39.59-29.56-39.59
					C2404.1,1286.61,2474.4,1318.41,2495.45,1415.66z"/>
			</g>
			<g>
				<path class="st32" d="M2492.53,1270.48c22.49-78.92,149.15-165.33,144.42-155.86c-4.74,9.47-12.63,24.86-21.7,59.58
					c-9.08,34.72-47.74,67.08-81.28,77.73C2500.42,1262.59,2492.53,1270.48,2492.53,1270.48z"/>
				<path class="st29" d="M2616,1171.38c-0.25,0.94-0.5,1.85-0.76,2.82c-9.08,34.72-47.74,67.08-81.28,77.73
					c-33.54,10.65-41.43,18.55-41.43,18.55C2524.14,1208.77,2587.65,1181.06,2616,1171.38z"/>
			</g>
			<g>
				<path class="st26" d="M2496.48,1406.22c2.37-121.53,28.41-143.63,97.86-150.73C2611.3,1337.56,2618.4,1382.94,2496.48,1406.22z"
					/>
				<path class="st29" d="M2593.66,1255.56c0.23-0.02,0.45-0.05,0.68-0.07c16.97,82.07,24.07,127.45-97.86,150.73
					C2517.87,1342.92,2568.83,1282.49,2593.66,1255.56z"/>
			</g>
		</g>
		<path class="st33" d="M2401.78,1481.19h202.42v-18.35c0-12.75-10.33-23.08-23.08-23.08h-156.25c-12.75,0-23.08,10.33-23.08,23.08
			V1481.19z"/>
		<path class="st33" d="M2419.53,1481.19h166.91v130.21c0,20.27-16.43,36.7-36.7,36.7h-93.52c-20.27,0-36.7-16.43-36.7-36.7V1481.19
			z"/>
		<path class="st34" d="M2463.92,1481.19v86.41c0,20.27,16.43,36.7,36.7,36.7h85.82v7.1c0,20.27-16.43,36.7-36.7,36.7h-93.52
			c-20.27,0-36.7-16.43-36.7-36.7v-130.21H2463.92z"/>
	</g>
	<g>
		<path class="st0" d="M718.81,327.54c-5.85,1.05-11.81,1.51-17.75,1.38c-34.64-0.73-65.05,15.96-69.45,70.9
			c-4.73,59.19-18.94,179.93-50.31,208.34c-31.37,28.41,239.71-2.96,239.71-2.96c-2.96-10.65-2.96-137.91-2.96-203.01
			C818.05,339.42,803.19,312.41,718.81,327.54z"/>
		<path class="st2" d="M786.09,522.35c-7.18,6.28-24.86,1.18-24.86,1.18s-2.96,30.78,1.18,40.25l5.92,17.76
			c0,0,18.94,65.11,17.16,69.84c-1.78,4.73-25.45,2.96-36.7,2.37s-63.33-13.61-65.11-17.16c-1.78-3.55-26.04-35.51-26.63-37.88
			S676,553.13,676,553.13c23.08,0,17.76-53.86,12.43-89.37l5.92-13.61c8.88,1.18,10.06-15.98,12.43-17.16
			c33.74-14.8,36.1-62.15,28.41-87.6c10.65-2.37,56.82,37.88,62.74,58c5.92,20.12,2.37,25.45,3.55,43.21
			C802.67,464.35,805.03,505.78,786.09,522.35z"/>
		<path class="st24" d="M1141.61,1575.88c0,0-5.13-0.39-27.14-39.74c27.32-30.27-12.32-128.75-31.26-206.87
			c-18.94-78.13,4.34-160.2,0.79-183.88c-3.55-23.67-87.2-15.78-98.25-17.76l93.91-138.89c0,0,106.14,34.33,114.82,61.55
			c8.68,27.23,1.58,78.13-1.97,110.09c-3.55,31.96-24.07,330.66-7.1,361.04c16.97,30.38,54.06,99.43,60.77,104.17
			c6.71,4.73,15.9,11.37,15.9,11.37l-8.79,9.94c0,0-18.94,2.76-22.1-0.79C1228.02,1642.57,1141.61,1575.88,1141.61,1575.88z"/>
		<path class="st35" d="M1229.67,1653.74c-17.21-0.7-24.86-0.73-37.53-20.54c-12.67-19.81-34.95-28.18-60.42-35.92l0.43,56.73
			l-8.92-0.03c0,0-2.39-13.72-4.67-31.87c-1.84-14.69-6.01-28.94-11.36-42.74c-3.11-8.01-3.61-16.73,2.18-31.25
			c1.74-4.36,3.46-8.28,5.1-11.97c41.51,19.98,70.64,58.8,90.69,78.62c21.38,21.14,29.82,26.99,56.91,22.2
			c10.56,4.55,23.08,10.98,26.24,16.99C1288.31,1653.96,1246.87,1654.44,1229.67,1653.74z"/>
		<g>
			<polygon class="st4" points="759.01,1557.75 513.68,1614.46 513.68,1653.59 558.14,1653.59 558.14,1633.63 765.59,1611.26 			"/>
			<polygon class="st4" points="791.94,1557.75 1037.26,1614.46 1037.26,1653.59 992.81,1653.59 992.81,1633.63 785.35,1611.26 			
				"/>
			<rect x="752.42" y="1263.1" class="st5" width="51.54" height="389.92"/>
			<polygon class="st4" points="834.33,1270.68 721.96,1270.68 707.14,1209.58 849.15,1209.58 			"/>
			<path class="st6" d="M728.55,668.86H468.93c-40.39,0-69.29,37.87-57.5,75.35l135.13,429.51c8.34,26.52,33.57,44.64,62.16,44.64
				h409.61c20.91,0,37.87-16.45,37.87-36.74V1074.6c0,0-299.66-146.96-293.07-158.14C769.71,905.28,728.55,668.86,728.55,668.86z"/>
			<path class="st7" d="M778.04,1257.8h-0.09c-1.6,0-2.89-1.29-2.89-2.89v-29.57c0-1.6,1.29-2.89,2.89-2.89h0.09
				c1.6,0,2.89,1.29,2.89,2.89v29.57C780.93,1256.51,779.63,1257.8,778.04,1257.8z"/>
			<path class="st7" d="M795.3,1597.85v0.09c0,1.6-1.29,2.89-2.89,2.89h-29.57c-1.6,0-2.89-1.29-2.89-2.89v-0.09
				c0-1.6,1.29-2.89,2.89-2.89h29.57C794,1594.96,795.3,1596.25,795.3,1597.85z"/>
		</g>
		<path class="st2" d="M1068.22,1575.88c0,0-5.13-0.39-27.14-39.74c27.32-30.27-12.32-128.75-31.26-206.87
			c-18.94-78.13,4.34-160.2,0.79-183.88c-3.55-23.67-87.2-15.78-98.25-17.76l122.72-109.69c0,0,80.89,28.41,89.57,55.64
			s-1.97,54.85-5.52,86.81c-3.55,31.96-24.07,330.66-7.1,361.04c16.97,30.38,54.06,99.43,60.77,104.17s15.9,11.37,15.9,11.37
			l-8.79,9.94c0,0-18.94,2.76-22.1-0.79C1154.63,1642.57,1068.22,1575.88,1068.22,1575.88z"/>
		<path class="st8" d="M873.69,921.27c132.58,44.98,230.83,75.76,230.83,75.76c-29.59,16.57-102.99,100.62-142.05,124.29
			c-39.06,23.67-209.52,8.29-209.52,8.29l-121.93-189.4L873.69,921.27z"/>
		<path class="st8" d="M681.53,593.38c26.04,39.46,104.17,53.66,87.6-0.79c37.09,29.99,67.87,231.22,67.87,238.33
			c0,7.1-14.99,94.7-21.31,92.33s-91.54,13.42-92.33-11.84C722.57,886.15,681.53,593.38,681.53,593.38z"/>
		<path class="st23" d="M762.42,563.78c-2.37,26.04,24.86,81.09,36.1,128.44c11.25,47.35-13.61,217.22-14.2,218.99
			c-0.59,1.78,110.09-2.96,110.09-2.96l95.88-26.04c-18.94-18.94-78.13-36.1-84.64-41.43c-19.53-19.53-63.92-236.75-72.21-241.48
			c-8.29-4.73-34.33-12.43-34.33-12.43v-5.33L762.42,563.78z"/>
		<path class="st23" d="M676,553.13c-9.47,2.37-67.87,20.52-66.29,26.04c1.58,5.52,1.58,5.52,1.58,5.52s-37.09,11.05-47.35,29.2
			c-10.26,18.15-17.36,75.76-7.1,138.1s43.4,175.98,48.93,178.35c5.52,2.37,23.67,3.95,23.67,3.95s-5.52,65.5-1.58,71.02
			c48.14,29.99,138.89-62.34,138.89-62.34l105.75,3.16c1.58-6.31,3.16-33.93,3.95-63.92c-30.78,8.68-131-28.41-131-28.41
			c-2.37-146-18.15-173.62-41.04-214.65C681.53,598.11,676,553.13,676,553.13z"/>
		<path class="st6" d="M925.3,1182.43l-89.98-1.7c-21.59-0.41-40.1-15.1-44.78-35.55l-13.61-59.43
			c-15.66-68.38-74.18-119.67-145.88-127.86l-70.21-8.03c-24.63-2.82-45.17-19.56-52.28-42.61l-38.51-124.96l-18.93,11.18
			l142.42,397.75l335.46,7.74L925.3,1182.43z"/>
		<path class="st36" d="M925.3,1184.82c-0.02,0-0.03,0-0.05,0l-89.98-1.7c-22.81-0.43-42.2-15.82-47.14-37.43l-13.61-59.43
			c-15.41-67.3-73.18-117.93-143.75-126l-70.21-8.03c-25.63-2.93-46.96-20.32-54.35-44.31l-38.51-124.96
			c-0.39-1.27,0.35-2.6,1.66-2.98c1.31-0.38,2.68,0.34,3.07,1.61l38.51,124.96c6.83,22.15,26.53,38.21,50.2,40.92l70.21,8.03
			c72.65,8.31,132.13,60.44,148,129.72l13.61,59.43c4.45,19.44,21.9,33.29,42.42,33.68l89.98,1.7c1.36,0.03,2.45,1.12,2.42,2.44
			C927.75,1183.78,926.65,1184.82,925.3,1184.82z"/>
		<g>
			<path class="st2" d="M876.65,894.05l-3.55,40.25c0,0,55.04,2.37,78.13-5.92c23.08-8.29,44.39-5.92,56.23-1.78
				c11.84,4.14,24.86,4.14,26.04,0c10.65-1.78,21.9-7.1,20.12-11.84c-1.78-4.73-52.08-29-42.02-27.23
				c10.06,1.78,46.17,15.39,49.13,14.8c2.96-0.59-39.06-29-46.76-31.96c-7.69-2.96-45.57-6.51-56.23-4.14
				C947.08,868.6,896.77,894.05,876.65,894.05z"/>
			<path class="st3" d="M1044.58,923.51c-0.22-0.02-0.45-0.11-0.63-0.26c-14.66-11.87-48.18-28.59-48.52-28.76
				c-0.59-0.29-0.82-1-0.53-1.59c0.29-0.58,1-0.82,1.59-0.53c0.34,0.17,34.09,17.01,48.95,29.04c0.51,0.41,0.59,1.16,0.18,1.66
				C1045.35,923.39,1044.96,923.54,1044.58,923.51z"/>
			<path class="st3" d="M1032.07,927.16c-0.19,0-0.38-0.05-0.56-0.14c-17.13-9.15-41.33-18.53-41.57-18.63
				c-0.61-0.24-0.91-0.92-0.68-1.53c0.24-0.61,0.93-0.91,1.53-0.68c0.24,0.09,24.58,9.53,41.83,18.75c0.58,0.31,0.8,1.03,0.49,1.6
				C1032.9,926.93,1032.49,927.16,1032.07,927.16z"/>
		</g>
		<path class="st37" d="M737.95,849.06c-1.23,0-2.26-0.95-2.36-2.19c-4.98-65.92-59.51-160.43-65.66-165.13
			c-1.14-0.76-1.81-1.95-1.87-3.34c-0.24-5.11,8.41-13.41,22.61-25.05c-2.18,0.59-4.51,1.27-6.44,1.83
			c-3.34,0.97-6.5,1.88-8.87,2.45c-2.31,0.55-6.63,1.58-36.08-35c-14.12-17.54-27.4-35.56-27.53-35.74
			c-0.78-1.05-0.55-2.54,0.5-3.31c1.05-0.78,2.54-0.55,3.31,0.5c24.6,33.41,53.36,68.32,58.92,68.92c2.04-0.51,5.15-1.41,8.43-2.36
			c13.49-3.91,15.99-4.41,17.31-1.97c0.5,0.93,0.66,2.4-1.38,4.12c-0.65,0.55-1.64,1.36-2.87,2.35
			c-19.55,15.86-23.01,21.11-23.18,22.84c7.12,5.96,62.4,100.78,67.52,168.54c0.1,1.3-0.88,2.44-2.18,2.54
			C738.07,849.06,738.01,849.06,737.95,849.06z"/>
		<path class="st37" d="M872.51,948.5c-0.16,0-0.32-0.02-0.48-0.05c-1.28-0.26-2.11-1.51-1.85-2.79c0.04-0.19,3.71-18.8,3.52-61.81
			c-28.41,6.99-105.38-19.31-129.06-27.83c-32.63-11.73-70.59-9.78-81.32-8.17c-1.29,0.19-2.49-0.69-2.69-1.98
			c-0.34-2.21-8.32-54.48-8.71-77.26c-0.5-29.07,1.58-43.08,7.17-48.35c1.7-1.61,3.78-2.37,6.03-2.19c1.3,0.1,2.28,1.24,2.18,2.54
			c-0.1,1.3-1.23,2.28-2.54,2.18c-0.93-0.07-1.67,0.21-2.42,0.92c-6.36,5.99-5.87,34.2-5.69,44.82c0.34,19.82,6.75,63.9,8.31,74.37
			c9.56-1.01,46.63-3.78,81.27,8.68c49.97,17.97,110.08,34.46,128.92,26.86c0.73-0.29,1.55-0.21,2.2,0.23
			c0.65,0.43,1.05,1.16,1.05,1.95c0.39,45.89-3.44,65.19-3.6,65.99C874.6,947.73,873.61,948.5,872.51,948.5z"/>
		<path class="st37" d="M642.86,876.49c-0.61,0-1.22-0.24-1.69-0.71c-0.92-0.93-0.91-2.43,0.03-3.35
			c11.99-11.8,19.57-27.77,19.64-27.93c0.42-0.89,1.34-1.43,2.32-1.35c0.98,0.07,1.81,0.75,2.09,1.69
			c4.3,14.54,0.16,27.68-0.02,28.23c-0.4,1.24-1.73,1.92-2.98,1.52c-1.24-0.4-1.93-1.73-1.53-2.98c0.03-0.1,2.73-8.73,1.3-19.23
			c-3.4,5.99-9.45,15.49-17.51,23.42C644.06,876.26,643.46,876.49,642.86,876.49z"/>
		<path class="st37" d="M876,865.91c-0.58-0.18-1.1-0.59-1.4-1.18c-0.59-1.16-0.13-2.59,1.03-3.19
			c14.98-7.66,26.99-20.62,27.11-20.75c0.67-0.72,1.71-0.96,2.62-0.59c0.91,0.36,1.51,1.26,1.49,2.24
			c-0.26,15.16-8.15,26.45-8.48,26.93c-0.76,1.07-2.23,1.31-3.3,0.56c-1.07-0.75-1.32-2.23-0.57-3.3c0.06-0.09,5.22-7.51,7.01-17.96
			c-5.04,4.69-13.66,11.94-23.73,17.09C877.22,866.06,876.57,866.09,876,865.91z"/>
		<path class="st37" d="M704.78,939.93c-18.77,0-52.37-0.55-74.14-4.09c-1.29-0.21-2.17-1.43-1.96-2.72
			c0.21-1.29,1.42-2.17,2.72-1.96c30.99,5.04,86.61,3.93,87.17,3.92c1.21,0.03,2.39,1.01,2.42,2.32c0.03,1.31-1.01,2.39-2.32,2.42
			C718.5,939.82,713.09,939.93,704.78,939.93z"/>
		<path class="st37" d="M815.1,775.67c-0.12,0-0.25-0.01-0.37-0.03c-1.29-0.2-2.17-1.42-1.97-2.71
			c7.39-46.61,5.41-98.54,4.35-103.87c-1.97-2.28-15.81-15.16-21.84-19.98c-0.98-0.78-3.02-2.41-1.87-4.45
			c1.24-2.19,3.28-1.44,9.36,0.79c1.66,0.61,4.09,1.5,5.8,2.01c-0.32-7.51-5.91-35.04-11.75-60.03c-0.3-1.27,0.49-2.55,1.77-2.84
			c1.27-0.3,2.55,0.49,2.84,1.77c14.28,61.12,11.84,64.2,11.04,65.21c-0.52,0.65-1.28,1.03-2.1,1.03c-1.19,0-2.88-0.46-5.25-1.26
			c6.75,6,15.06,13.79,16.09,15.34c1.96,2.94,3.82,59.13-3.77,107.04C817.25,774.84,816.24,775.67,815.1,775.67z"/>
		<path class="st37" d="M839.36,866.82c-1.15,0-2.16-0.84-2.34-2.01c-3.01-19.88,11.63-91.7,15.44-106.31
			c1.51-5.79-3.26-19.13-9.31-36.01c-7.22-20.17-16.22-45.27-21.51-74.84c-0.23-1.29,0.63-2.52,1.91-2.75
			c1.29-0.24,2.52,0.63,2.75,1.91c5.22,29.18,14.14,54.07,21.3,74.08c6.81,19.02,11.32,31.59,9.43,38.8
			c-3.33,12.76-18.24,85.24-15.34,104.4c0.2,1.29-0.69,2.5-1.99,2.7C839.6,866.81,839.48,866.82,839.36,866.82z"/>
		<path class="st0" d="M1156.27,1653.74c-17.21-0.7-24.86-0.73-37.53-20.54c-12.67-19.81-34.95-28.18-60.42-35.92l0.43,56.73
			l-8.92-0.03c0,0-2.39-13.72-4.67-31.87c-1.84-14.69-6.01-28.94-11.36-42.74c-3.11-8.01-3.61-16.73,2.18-31.25
			c1.74-4.36,3.46-8.28,5.1-11.97c41.51,19.98,70.64,58.8,90.69,78.62c21.38,21.14,29.82,26.99,56.91,22.2
			c10.56,4.55,23.08,10.98,26.24,16.99C1214.92,1653.96,1173.48,1654.44,1156.27,1653.74z"/>
		<g>
			<path class="st38" d="M1317.04,938.21h-246.82c-14.23,0-25.77-11.54-25.77-25.77l20.82-181.93c0-14.23,11.54-25.77,25.77-25.77
				h246.82c14.23,0,25.77,11.54,25.77,25.77l-20.82,181.93C1342.82,926.67,1331.28,938.21,1317.04,938.21z"/>
			<path class="st14" d="M1323.29,938.21h-246.82c-14.23,0-25.77-11.54-25.77-25.77l20.82-181.93c0-14.23,11.54-25.77,25.77-25.77
				h246.82c14.23,0,25.77,11.54,25.77,25.77l-20.82,181.93C1349.06,926.67,1337.52,938.21,1323.29,938.21z"/>
			<path class="st14" d="M1211.77,938.21H939.89c-3.19,0-5.77,2.58-5.77,5.77v5.13c0,3.19,2.58,5.77,5.77,5.77h271.88
				c3.19,0,5.77-2.58,5.77-5.77v-5.13C1217.54,940.79,1214.96,938.21,1211.77,938.21z"/>
			<path class="st15" d="M1328.35,938.21h-271.88c-3.19,0-5.77,2.58-5.77,5.77v5.13c0,3.19,2.58,5.77,5.77,5.77h271.88
				c3.19,0,5.77-2.58,5.77-5.77v-5.13C1334.12,940.79,1331.54,938.21,1328.35,938.21z"/>
			<ellipse class="st17" cx="1215.84" cy="821.47" rx="19.05" ry="9.66"/>
			<path class="st17" d="M1343.82,927.98c3.28-4.32,5.25-9.7,5.25-15.54l20.82-181.93c0-14.23-11.54-25.77-25.77-25.77h-246.82
				c-8.02,0-15.18,3.66-19.91,9.41L1343.82,927.98z"/>
		</g>
		<g>
			
				<ellipse transform="matrix(0.9732 -0.2298 0.2298 0.9732 -85.6885 169.048)" class="st20" cx="683.1" cy="452.5" rx="16.71" ry="16.71"/>
			<path class="st3" d="M683.1,440.46c1.49,0,2.9,0.28,4.22,0.78c0.09,0.02,0.17,0.05,0.24,0.09c4.44,1.78,7.58,6.11,7.58,11.18
				c0,0.54-0.44,0.98-0.98,0.98c-0.54,0-0.98-0.44-0.98-0.98c0-4.22-2.61-7.83-6.29-9.33c-4.44,0.11-8.02,3.75-8.02,8.22
				c0,4.54,3.69,8.23,8.23,8.23c0.54,0,0.98,0.44,0.98,0.98c0,0.54-0.44,0.98-0.98,0.98c-5.62,0-10.2-4.58-10.2-10.2
				c0-3.83,2.13-7.17,5.26-8.92c-5.11,0.48-9.13,4.79-9.13,10.03c0,0.54-0.44,0.98-0.98,0.98c-0.54,0-0.98-0.44-0.98-0.98
				C671.06,445.86,676.46,440.46,683.1,440.46z"/>
		</g>
		<circle class="st8" cx="685.03" cy="471.6" r="5.62"/>
		<path class="st3" d="M712.41,501.04c-0.35,0-0.69-0.15-0.92-0.44c-0.1-0.12-9.96-12.46-18.79-31.31c-0.28-0.59-0.02-1.3,0.57-1.57
			c0.6-0.28,1.3-0.02,1.57,0.57c8.71,18.58,18.4,30.71,18.49,30.83c0.41,0.51,0.33,1.25-0.18,1.66
			C712.93,500.96,712.67,501.04,712.41,501.04z"/>
		<path class="st3" d="M760.95,557.9c-1.81-12.55,0.29-34.37,0.29-34.37c-18.94-4.73-29.3-11.25-29.3-11.25
			C731.94,520.35,749.52,557.96,760.95,557.9z"/>
		<path class="st0" d="M729.67,417.79c11.64-10.65,27.23-9.08,28.8-8.68C745.45,397.66,736.18,402.2,729.67,417.79z"/>
		<path class="st0" d="M750.28,402.1c5.23,1.97,8.19,7,8.19,7C756.6,401.02,750.28,402.1,750.28,402.1z"/>
		<path class="st0" d="M784.81,408.81c8.09-1.48,15.19,2.66,15.19,1.97C798.42,404.67,791.32,399.04,784.81,408.81z"/>
		<path class="st0" d="M784.81,408.81c0.2-2.47,2.96-5.82,4.73-6.31C785.5,402.79,784.42,404.96,784.81,408.81z"/>
		<g>
			<path class="st0" d="M754.53,434.36c0.02,3.79-2.36,6.87-5.3,6.89c-2.95,0.01-5.35-3.04-5.37-6.83c-0.02-3.79,2.36-6.87,5.3-6.89
				C752.11,427.52,754.51,430.58,754.53,434.36z"/>
			<path class="st0" d="M740.67,435.53c-0.12,0.02-0.24,0.01-0.37-0.02c-0.54-0.13-0.88-0.67-0.76-1.22
				c1.15-4.96,4.15-8.62,8.04-9.79c3.39-1.01,7.03,0.02,10.01,2.85c0.41,0.39,0.42,1.03,0.04,1.43c-0.39,0.41-1.03,0.42-1.43,0.04
				c-2.47-2.35-5.32-3.19-8.03-2.38c-3.18,0.95-5.66,4.06-6.65,8.31C741.42,435.18,741.07,435.48,740.67,435.53z"/>
			<path class="st0" d="M745.05,427.73c-0.19-0.01-0.38-0.08-0.55-0.2c-0.45-0.34-0.54-0.97-0.2-1.42c1.35-1.8,6.46-4.61,12.71-3.21
				c0.55,0.12,0.89,0.66,0.77,1.21c-0.12,0.55-0.67,0.89-1.21,0.77c-5.38-1.19-9.74,1.23-10.65,2.45
				C745.7,427.61,745.37,427.75,745.05,427.73z"/>
		</g>
		<g>
			<path class="st0" d="M795.96,432.98c0.02,3.79-2.36,6.87-5.3,6.89c-2.95,0.01-5.35-3.04-5.37-6.83c-0.02-3.79,2.36-6.87,5.3-6.89
				C793.54,426.14,795.94,429.19,795.96,432.98z"/>
			<path class="st0" d="M782.1,434.15c-0.12,0.02-0.24,0.01-0.37-0.02c-0.54-0.13-0.88-0.67-0.76-1.22
				c1.15-4.96,4.15-8.62,8.04-9.79c3.39-1.01,7.03,0.02,10.01,2.85c0.41,0.39,0.42,1.03,0.04,1.43c-0.39,0.41-1.03,0.42-1.43,0.04
				c-2.47-2.35-5.32-3.19-8.03-2.38c-3.18,0.95-5.66,4.06-6.65,8.31C782.85,433.8,782.5,434.1,782.1,434.15z"/>
			<path class="st0" d="M786.48,426.35c-0.19-0.01-0.38-0.08-0.55-0.2c-0.45-0.34-0.54-0.97-0.2-1.42c1.35-1.8,6.46-4.61,12.71-3.21
				c0.55,0.12,0.89,0.66,0.77,1.21c-0.12,0.55-0.67,0.89-1.21,0.77c-5.38-1.19-9.74,1.23-10.65,2.45
				C787.13,426.22,786.8,426.36,786.48,426.35z"/>
		</g>
		<path class="st0" d="M774.14,472.2c-0.55,0.09-1.08-0.28-1.17-0.83c-0.09-0.55,0.28-1.08,0.83-1.17
			c11.16-1.92,14.5-4.18,14.72-5.11c-0.02-0.61-1.45-4.19-2.82-7.65c-3.73-9.4-9.38-23.6-8.5-30.93c0.07-0.56,0.57-0.95,1.13-0.89
			c0.56,0.07,0.95,0.57,0.89,1.12c-0.81,6.83,4.94,21.3,8.37,29.95c2.54,6.39,3.11,7.98,2.91,8.85
			C789.73,468.86,781.18,470.99,774.14,472.2z"/>
		<path class="st0" d="M774.63,466.78c-0.13-0.42-1.53-0.36-3.15,0.12c-1.61,0.49-2.82,1.22-2.69,1.64
			c0.13,0.42,1.53,0.36,3.15-0.12C773.55,467.93,774.76,467.2,774.63,466.78z"/>
		<path class="st3" d="M767.5,474.21c-0.07,0.01-0.13,0.01-0.2,0.01c-1.02-0.1-1.92-0.72-2.54-1.75c-1.26-2.11-1.17-5.43,0.26-8.89
			c0.16-0.39,0.6-0.57,0.99-0.41c0.39,0.16,0.57,0.6,0.41,0.99c-1.47,3.55-1.15,6.22-0.36,7.53c0.26,0.43,0.7,0.95,1.38,1.02
			c0.42,0.04,0.72,0.41,0.68,0.83C768.09,473.88,767.83,474.15,767.5,474.21z"/>
		<path class="st3" d="M778.64,509.13c-4.06,0.44-8.55-0.15-12.33-2.31c-0.61-0.35-0.82-1.12-0.47-1.73
			c0.34-0.61,1.12-0.82,1.73-0.47c5.57,3.18,12.89,2.46,17.25,0.1c0.61-0.34,1.38-0.1,1.72,0.51c0.33,0.62,0.1,1.38-0.51,1.72
			C784,508.04,781.42,508.83,778.64,509.13z"/>
		<g>
			<path class="st39" d="M795.55,478.91c-2.97,8.15-5.78,22.76-18.33,22.53c-12.55-0.23-27.67-20.53-27.67-20.53l23.82,1.7
				L795.55,478.91z"/>
			<path class="st8" d="M749.54,480.91c0,0,20.02,15.06,33.24,11.11c6.07-1.78,12.76-13.11,12.76-13.11s-27.01,3.39-30.37,3.59
				C761.83,482.69,749.54,480.91,749.54,480.91z"/>
			<path class="st40" d="M795.55,478.91c-10.76,7.64-18.95,10.1-46,2c16.5-2.64,26.29-5.55,30.17-0.49
				C783.82,474.38,795.55,478.91,795.55,478.91z"/>
		</g>
	</g>
	<g>
		<path class="st15" d="M2103.7,936.43h-224.53c-3.19,0-5.77,2.58-5.77,5.77v5.13c0,3.19,2.58,5.77,5.77,5.77h224.53
			c3.19,0,5.77-2.58,5.77-5.77v-5.13C2109.47,939.02,2106.89,936.43,2103.7,936.43z"/>
		<path class="st15" d="M1789.05,741.47l84.59,207.99c1.2,2.95,4.57,4.37,7.52,3.17l4.75-1.93c2.95-1.2,4.37-4.57,3.17-7.52
			l-84.59-207.99c-1.2-2.95-4.57-4.37-7.52-3.17l-4.75,1.93C1789.27,735.15,1787.85,738.52,1789.05,741.47z"/>
	</g>
	<rect x="763.6" y="953.23" class="st0" width="1392.09" height="44.98"/>
	<path class="st2" d="M1772.74,1636.97c0,0,22.29-9.79,28.61-16.89c6.31-7.1,39.46-72.6,57.61-98.65
		c18.15-26.04,39.46-55.24,39.46-55.24l25.25,5.52c0,0-1.58,80.49-4.73,84.44s-84.44,68.66-84.44,68.66s-16.57,19.73-19.73,19.73
		c-3.16,0-21.31,0.79-23.67,0.79c-2.37,0-22.1,0-22.1,0L1772.74,1636.97z"/>
	<g>
		<g>
			<g>
				<path class="st26" d="M516.18,1265.61l-4.71-0.52c0.13-1.22,13.32-123.47,7.49-205.94l4.72-0.34
					C529.56,1141.72,516.32,1264.38,516.18,1265.61z"/>
			</g>
			<path class="st27" d="M518.57,1061.55c-17.18-22.9-3.76-97.55,4.73-81.68C536.91,1005.32,527.44,1073.38,518.57,1061.55z"/>
			<g>
				<path class="st28" d="M523.05,1157.76c-13.6-74.66,30.73-139.37,79.04-148.12C632.99,1099.9,551.92,1150.29,523.05,1157.76z"/>
				<path class="st29" d="M602.08,1009.64c-8.1,52.9-79.04,148.12-79.04,148.12C551.92,1150.29,632.99,1099.9,602.08,1009.64z"/>
			</g>
			<g>
				<path class="st30" d="M517.38,1235.75c57.21-48.14,119.16-136.92,119.16-136.92C609.32,1101.99,537.11,1134.74,517.38,1235.75z"
					/>
				<path class="st31" d="M518.41,1230.99c10.27-41.32,57.59-74.67,88.58-92.57c17.88-22.86,29.56-39.59,29.56-39.59
					C609.76,1101.94,539.45,1133.75,518.41,1230.99z"/>
			</g>
			<g>
				<path class="st32" d="M521.33,1085.81c-22.49-78.92-149.15-165.33-144.42-155.86c4.73,9.47,12.63,24.86,21.7,59.58
					c9.08,34.72,47.74,67.08,81.28,77.73S521.33,1085.81,521.33,1085.81z"/>
				<path class="st29" d="M397.86,986.71c0.25,0.95,0.5,1.85,0.76,2.82c9.08,34.72,47.74,67.08,81.28,77.73
					c33.54,10.65,41.43,18.55,41.43,18.55C489.72,1024.11,426.21,996.39,397.86,986.71z"/>
			</g>
			<g>
				<path class="st26" d="M517.38,1221.55c-2.37-121.53-28.41-143.63-97.86-150.73C402.56,1152.89,395.46,1198.27,517.38,1221.55z"
					/>
				<path class="st29" d="M420.2,1070.89c-0.23-0.02-0.45-0.05-0.68-0.07c-16.97,82.07-24.07,127.45,97.86,150.73
					C495.99,1158.26,445.03,1097.82,420.2,1070.89z"/>
			</g>
		</g>
		<path class="st33" d="M612.08,1296.52H409.66v-18.35c0-12.75,10.33-23.08,23.08-23.08H589c12.75,0,23.08,10.33,23.08,23.08
			V1296.52z"/>
		<path class="st33" d="M594.33,1296.52H427.42v319.61c0,20.27,16.43,36.7,36.7,36.7h93.52c20.27,0,36.7-16.43,36.7-36.7V1296.52z"
			/>
		<path class="st34" d="M549.94,1296.52v275.81c0,20.27-16.43,36.7-36.7,36.7h-85.82v7.1c0,20.27,16.43,36.7,36.7,36.7h93.52
			c20.27,0,36.7-16.43,36.7-36.7v-319.61H549.94z"/>
	</g>
	<path class="st23" d="M1805.15,1653.74c17.21-0.7,24.86-0.73,37.53-20.54c12.67-19.81,34.95-28.18,60.42-35.92l-0.43,56.73
		l8.92-0.03c0,0,2.39-13.72,4.67-31.87c1.84-14.69,6.01-28.94,11.36-42.74c3.11-8.01,3.61-16.73-2.18-31.25
		c-1.74-4.36-3.46-8.28-5.1-11.97c-41.51,19.98-70.64,58.8-90.69,78.62c-21.38,21.14-29.82,26.99-56.91,22.2
		c-10.56,4.55-23.08,10.98-26.24,16.99C1746.51,1653.96,1787.94,1654.44,1805.15,1653.74z"/>
	<path class="st41" d="M2044.27,1653.74c17.21-0.7,24.86-0.73,37.53-20.54c12.67-19.81,34.95-28.18,60.42-35.92l-0.43,56.73
		l8.92-0.03c0,0,2.39-13.72,4.67-31.87c1.84-14.69,6.01-28.94,11.36-42.74c3.11-8.01,3.61-16.73-2.18-31.25
		c-1.74-4.36-3.46-8.28-5.1-11.97c-41.51,19.98-70.64,58.8-90.69,78.62c-21.38,21.14-29.82,26.99-56.91,22.2
		c-10.56,4.55-23.08,10.98-26.24,16.99C1985.62,1653.96,2027.06,1654.44,2044.27,1653.74z"/>
	<path class="st42" d="M2270.12,988.75c-3.16,25.25-56.82,45.77-97.86,45.77c-41.04,0-209.92-7.89-238.33,18.94
		s-110.48,473.5-110.48,473.5c33.14,31.57,119.95,31.57,119.95,31.57c4.74-17.36,83.65-366.17,83.65-366.17s11.05-3.16,9.47-12.63
		c-1.58-9.47,18.94-4.73,18.94-4.73l219.39,3.16l159.41-175.19L2270.12,988.75z"/>
	<path class="st43" d="M2285.23,1094.04l-1.04-4.62c-33.59,7.53-100.09,9.36-158.76,10.97c-75.49,2.08-106.68,3.55-111.15,9.94
		c-0.73,1.05-0.92,2.28-0.52,3.46c2.07,6.22,2.19,10.67,0.35,13.23c-1.81,2.51-5.95,3.78-12.3,3.78c-6.46,0-12.22,2.6-16.68,7.52
		c-5.06,5.59-7.73,13.68-6.99,21.11c0.53,9.95-56.93,261.57-87.55,394.3c1.57,0.27,3.14,0.52,4.68,0.76
		c24.43-105.84,88.6-385.31,87.58-395.51c-0.62-6.16,1.6-12.86,5.79-17.48c2.46-2.72,6.74-5.96,13.16-5.96
		c8.08,0,13.36-1.88,16.15-5.75c2.76-3.83,2.92-9.4,0.47-16.99c5.74-4.88,59.57-6.36,107.15-7.67
		C2184.45,1103.5,2251.19,1101.67,2285.23,1094.04z"/>
	<path class="st6" d="M2125.89,1182.43l89.98-1.7c21.59-0.41,40.1-15.1,44.78-35.55l13.61-59.43
		c15.66-68.38,74.18-119.67,145.88-127.86l70.21-8.03c24.63-2.82,45.17-19.56,52.28-42.61l38.51-124.96l18.93,11.18l-142.42,397.75
		l-335.46,7.74L2125.89,1182.43z"/>
	<path class="st36" d="M2125.89,1184.82c0.02,0,0.03,0,0.05,0l89.98-1.7c22.81-0.43,42.2-15.82,47.14-37.43l13.61-59.43
		c15.41-67.3,73.19-117.93,143.75-126l70.21-8.03c25.63-2.93,46.96-20.32,54.35-44.31l38.51-124.96c0.39-1.27-0.35-2.6-1.66-2.98
		c-1.31-0.38-2.68,0.34-3.07,1.61l-38.51,124.96c-6.83,22.15-26.53,38.21-50.2,40.92l-70.21,8.03
		c-72.65,8.31-132.13,60.44-148,129.72l-13.61,59.43c-4.45,19.44-21.9,33.29-42.42,33.68l-89.98,1.7c-1.36,0.03-2.45,1.12-2.42,2.44
		C2123.44,1183.78,2124.55,1184.82,2125.89,1184.82z"/>
	<g>
		<g>
			<path class="st20" d="M2356.15,508.74c0,10.7-8.67,19.37-19.37,19.37c-10.7,0-19.37-8.67-19.37-19.37
				c0-10.7,8.67-19.37,19.37-19.37C2347.48,489.36,2356.15,498.04,2356.15,508.74z"/>
			<path class="st3" d="M2336.78,494.78c-1.72,0-3.37,0.33-4.89,0.9c-0.1,0.02-0.19,0.05-0.28,0.1c-5.14,2.06-8.79,7.09-8.79,12.96
				c0,0.63,0.51,1.14,1.14,1.14c0.63,0,1.14-0.51,1.14-1.14c0-4.89,3.02-9.08,7.3-10.82c5.15,0.13,9.3,4.35,9.3,9.53
				c0,5.26-4.28,9.54-9.54,9.54c-0.63,0-1.14,0.51-1.14,1.14c0,0.63,0.51,1.14,1.14,1.14c6.52,0,11.82-5.3,11.82-11.82
				c0-4.44-2.47-8.32-6.1-10.34c5.93,0.55,10.59,5.55,10.59,11.63c0,0.63,0.51,1.14,1.14,1.14c0.63,0,1.14-0.51,1.14-1.14
				C2350.74,501.04,2344.48,494.78,2336.78,494.78z"/>
		</g>
		<path class="st23" d="M2335.62,524.94c0,2.7-2.19,4.88-4.88,4.88s-4.88-2.19-4.88-4.88c0-2.7,2.19-4.88,4.88-4.88
			S2335.62,522.24,2335.62,524.94z"/>
		<rect x="2328.07" y="532.71" class="st23" width="5.33" height="30.33"/>
	</g>
	<path class="st0" d="M2264.19,481.47c-0.27,4.08-2.22,7.27-4.34,7.12c-2.12-0.14-3.62-3.56-3.34-7.64
		c0.27-4.08,2.22-7.27,4.34-7.12C2262.97,473.98,2264.46,477.4,2264.19,481.47z"/>
	<path class="st0" d="M2262.58,471.81c-0.01-0.02,0-0.03-0.01-0.05c-0.86-1.54-3.44-4.2-7.06-3.28c-0.38,0.1-0.61,0.49-0.51,0.87
		c0.1,0.38,0.5,0.63,0.87,0.51c1.75-0.45,3.1,0.18,4.03,0.94c-1.62-0.12-3.37,0.52-5.35,2.02c-0.31,0.24-0.37,0.68-0.14,1
		c0.24,0.31,0.68,0.37,1,0.14c2.06-1.56,3.76-2.09,5.21-1.61c2.4,0.78,4.54,4.38,6.56,11.02c0.09,0.31,0.37,0.5,0.68,0.5
		c0.07,0,0.14-0.01,0.21-0.03c0.37-0.11,0.59-0.51,0.47-0.89C2266.73,477.03,2264.81,473.44,2262.58,471.81z"/>
	<path class="st0" d="M2259.01,496.55c-0.65,0-1.24-0.08-1.75-0.25c-0.37-0.12-0.57-0.53-0.45-0.9c0.12-0.37,0.53-0.57,0.9-0.45
		c2.05,0.69,6.02-0.48,8.41-3.24c0.26-0.3,0.71-0.33,1-0.07c0.3,0.26,0.33,0.71,0.07,1
		C2264.96,495.21,2261.58,496.55,2259.01,496.55z"/>
	<g>
		<path class="st0" d="M2247.72,457.1c18.35,1.48,29.59,12.28,29.59,12.28c-2.07-9.91-11.69-21.46-18.64-20.57
			C2251.72,449.7,2247.72,457.1,2247.72,457.1z"/>
		<path class="st0" d="M2253.79,448.14c-2.29,1.7-6.07,8.95-6.07,8.95C2246.1,452.07,2245.87,448.66,2253.79,448.14z"/>
	</g>
	<path class="st3" d="M2260.25,586.08c11.05-0.59,18.55,10.65,19.73,30.58c0.23,3.94,0.35,8,0.39,11.99
		c11.6-18.55,2.94-54.86,1.09-55.39c-2.07-0.59-44.09,15.68-54.55,10.85C2230.46,588.64,2249.2,586.67,2260.25,586.08z"/>
	<path class="st3" d="M2299.51,560.82c-0.39,0-0.78-0.2-1-0.56c-0.35-0.55-0.18-1.29,0.38-1.63c1.79-1.12,15.4-15.67,20.8-33.08
		c0.19-0.62,0.85-0.97,1.48-0.78c0.62,0.19,0.97,0.86,0.78,1.48c-5.42,17.47-19.08,32.68-21.81,34.39
		C2299.94,560.76,2299.73,560.82,2299.51,560.82z"/>
	<path class="st0" d="M2251.61,541.02c0.51-0.13,0.81-0.65,0.68-1.15c-0.13-0.5-0.64-0.82-1.15-0.68
		c-0.15,0.04-14.12,3.56-31.56,2.24c0.55,0.61,1,1.07,1.21,1.24c-0.04,0.25-0.07,0.49-0.11,0.74c2.33,0.15,4.61,0.22,6.79,0.22
		C2241.33,543.63,2251.48,541.06,2251.61,541.02z"/>
	<path class="st0" d="M2218.12,514.53c0.2-0.39,1.58-0.07,3.07,0.71c1.49,0.78,2.53,1.73,2.33,2.11c-0.2,0.39-1.58,0.07-3.07-0.71
		C2218.96,515.87,2217.92,514.92,2218.12,514.53z"/>
	<path class="st3" d="M2224.11,521.21c0.06,0.02,0.13,0.04,0.2,0.04c1.02,0.09,2.02-0.35,2.82-1.24c1.64-1.83,2.17-5.11,1.42-8.78
		c-0.08-0.41-0.48-0.68-0.9-0.59c-0.41,0.08-0.68,0.49-0.59,0.9c0.77,3.77-0.05,6.33-1.07,7.46c-0.33,0.37-0.87,0.8-1.55,0.74
		c-0.42-0.04-0.79,0.27-0.83,0.69C2223.59,520.78,2223.8,521.09,2224.11,521.21z"/>
	<path class="st22" d="M2202.83,1002.87c-25.95,0-50.39-50.12-58.09-74.98c-14.79-47.78-21.75-106.38-25.91-141.4
		c-1.6-13.44-2.75-23.16-3.71-26.79c-0.31-1.19,0.33-2.42,1.49-2.83l44.98-16.18c1.12-0.41,2.37,0.09,2.91,1.15
		c2.29,4.49,54.79,107.86,60.28,132.78c1.64,0.48,3.58,1.55,5.03,3.62c3.73-7.61,11.49-29.81,16.88-45.23
		c1.63-4.68,3.2-9.16,4.62-13.16c24.15-57.65,34.54-104.99,34.64-105.46c0.28-1.28,1.54-2.08,2.82-1.81
		c1.28,0.28,2.09,1.54,1.81,2.82c-0.1,0.48-10.59,48.23-34.85,106.16c-1.37,3.87-2.93,8.35-4.56,13.02
		c-16.88,48.3-18.69,50.53-21.75,50.48c-0.97-0.03-2.16-0.62-2.61-2.21c-1.03-3.6-3.77-3.8-4.07-3.81c-1.14-0.04-2.14-0.89-2.3-2.02
		c-2.84-19.2-51.75-116.44-59.2-131.18l-41.06,14.77c0.93,4.81,1.98,13.69,3.36,25.31c4.14,34.86,11.07,93.19,25.73,140.56
		c10.19,32.93,36.67,77.19,57.84,71.03c22.91-6.65,58.32-26.24,61.6-28.06c11.9-11.13,28.5-38.59,46.08-67.64
		c28.93-47.83,58.87-97.28,79.19-94.15c1.29,0.2,2.18,1.41,1.98,2.7c-0.2,1.29-1.42,2.18-2.7,1.98
		c-17.16-2.63-48.93,49.79-74.42,91.92c-17.86,29.52-34.72,57.4-47.12,68.86c-0.14,0.12-0.29,0.23-0.45,0.32
		c-1.56,0.88-38.4,21.52-62.84,28.62C2206.56,1002.61,2204.69,1002.87,2202.83,1002.87z"/>
	<path class="st22" d="M2126.09,779.62c-1.31,0-2.37-1.06-2.37-2.37c0-1.31,1.06-2.37,2.37-2.37c21.9,0,36.21-9.56,38.57-11.93
		c0.92-0.92,2.42-0.92,3.35,0s0.92,2.42,0,3.35C2163.67,770.64,2147.7,779.62,2126.09,779.62z"/>
	<path class="st22" d="M2140.69,815.92c-1.1,0-2.09-0.77-2.32-1.89c-0.11-0.56-2.81-13.86-2.41-29.74c0.03-1.31,1.15-2.38,2.43-2.31
		c1.31,0.03,2.34,1.12,2.31,2.43c-0.38,15.31,2.29,28.53,2.32,28.66c0.26,1.28-0.56,2.53-1.84,2.8
		C2141.01,815.9,2140.85,815.92,2140.69,815.92z"/>
	<path class="st22" d="M2156.47,802.5c-1.15,0-2.15-0.84-2.34-2c-0.01-0.1-1.58-9.68-7.71-16.54c-0.87-0.97-0.79-2.47,0.19-3.34
		c0.98-0.87,2.47-0.79,3.34,0.18c7.09,7.93,8.79,18.53,8.86,18.97c0.2,1.29-0.69,2.5-1.98,2.7
		C2156.72,802.49,2156.59,802.5,2156.47,802.5z"/>
	<path class="st22" d="M2178.97,804.47c-1.15,0-2.17-0.85-2.34-2.02c-0.02-0.15-2.41-15.48-13.05-25.02
		c-0.97-0.87-1.06-2.37-0.18-3.34c0.87-0.97,2.37-1.05,3.34-0.18c11.94,10.71,14.47,27.16,14.57,27.86c0.19,1.29-0.7,2.49-2,2.68
		C2179.2,804.47,2179.08,804.47,2178.97,804.47z"/>
	<path class="st22" d="M2160.22,758.31c0,2.72-2.21,4.93-4.93,4.93c-2.72,0-4.93-2.21-4.93-4.93s2.21-4.93,4.93-4.93
		C2158.02,753.38,2160.22,755.59,2160.22,758.31z"/>
	<path class="st22" d="M2216.05,938.24c-1.2,0-2.23-0.91-2.35-2.14c-0.13-1.34-3.1-33.17,6.04-59.79c0.43-1.24,1.77-1.9,3.01-1.47
		c1.24,0.42,1.89,1.77,1.47,3.01c-8.8,25.63-5.83,57.48-5.8,57.79c0.13,1.3-0.83,2.46-2.13,2.59
		C2216.21,938.24,2216.13,938.24,2216.05,938.24z"/>
	<path class="st22" d="M2233.82,923.64c-0.85,0-1.68-0.46-2.1-1.27c-0.4-0.77-9.81-19.17-4.95-42.22c0.27-1.28,1.53-2.1,2.8-1.83
		c1.28,0.27,2.1,1.52,1.83,2.8c-4.51,21.41,4.43,38.88,4.52,39.06c0.6,1.16,0.15,2.59-1,3.19
		C2234.56,923.55,2234.19,923.64,2233.82,923.64z"/>
</g>
</svg>
